# xmcd
#
# Track frame offsets: 
#        150
#        11742
#        28105
#        39187
#        55247
#        70321
#        86130
#        98433
#        113338
#        123930
#        140292
#
# Disc length: 2104 seconds
#
# Revision: 25
# Processed by: cddbd v1.5.2PL0 Copyright (c) Steve Scherf et al.
# Submitted via: ExactAudioCopy v1.0b3
#
DISCID=8308360b
DTITLE=The Beatles - Let It Be... Naked Disc 1 TYCP-60029-30
DYEAR=2003
DGENRE=Rock
TTITLE0=Get Back
TTITLE1=Dig A Pony
TTITLE2=For You Blue
TTITLE3=The Long And Winding Road
TTITLE4=Two Of Us
TTITLE5=I've Got A Feeling
TTITLE6=One After 909
TTITLE7=Don't Let Me Down
TTITLE8=I Me Mine
TTITLE9=Across The Universe
TTITLE10=Let It Be
EXTD=www.thebeatles.com\nApple Corps Ltd./EMI\nRecorded Jan 1969\nRele
EXTD=ased Nov 17, 2003\n YEAR: 2003
EXTT0=
EXTT1=
EXTT2=
EXTT3=
EXTT4=
EXTT5=
EXTT6=
EXTT7=
EXTT8=
EXTT9=
EXTT10=
PLAYORDER=
